<?xml version="1.0" standalone="no"?>
<!DOCTYPE svg PUBLIC "-//W3C//DTD SVG 20010904//EN"
 "http://www.w3.org/TR/2001/REC-SVG-20010904/DTD/svg10.dtd">
<svg version="1.0" xmlns="http://www.w3.org/2000/svg"
 width="300.000000pt" height="300.000000pt" viewBox="0 0 300.000000 300.000000"
 preserveAspectRatio="xMidYMid meet">
<metadata>
Created by potrace 1.11, written by Peter Selinger 2001-2013
</metadata>
<g transform="translate(0.000000,300.000000) scale(0.100000,-0.100000)"
fill="#000000" stroke="none">
<path d="M1356 2802 c-3 -3 -36 -8 -111 -17 -16 -2 -30 -4 -30 -5 0 -2 -37
-11 -52 -12 -7 -1 -13 -4 -13 -8 0 -5 -18 -9 -57 -12 -7 -1 -13 -6 -13 -11 0
-6 -3 -8 -6 -4 -4 3 -19 0 -35 -9 -16 -8 -29 -11 -29 -8 0 4 -8 0 -18 -9 -10
-10 -22 -14 -25 -10 -4 3 -7 1 -7 -5 0 -7 -3 -11 -7 -10 -13 3 -83 -25 -83
-34 0 -4 -7 -8 -15 -8 -8 0 -15 -5 -15 -11 0 -5 -5 -7 -10 -4 -6 3 -13 -1 -16
-9 -3 -9 -10 -13 -15 -10 -5 3 -12 -2 -15 -10 -3 -9 -10 -13 -15 -10 -5 3 -9
0 -9 -5 0 -6 -7 -11 -15 -11 -9 0 -18 -7 -21 -15 -4 -8 -11 -15 -17 -15 -7 0
-23 -11 -37 -24 -14 -14 -55 -53 -92 -88 -37 -35 -68 -66 -68 -69 0 -4 -18
-26 -40 -50 -22 -24 -40 -47 -40 -50 0 -3 -23 -40 -50 -82 -28 -42 -50 -83
-50 -91 0 -8 -5 -18 -10 -21 -6 -4 -8 -11 -5 -16 4 -5 2 -9 -3 -9 -8 0 -15
-13 -27 -55 -2 -5 -12 -34 -24 -62 -11 -29 -18 -53 -15 -53 4 0 1 -7 -6 -15
-7 -8 -9 -15 -5 -15 4 0 3 -6 -2 -12 -6 -7 -9 -21 -8 -30 2 -10 0 -18 -3 -18
-4 0 -8 -12 -9 -27 -5 -59 -9 -89 -14 -98 -8 -14 -5 -308 3 -321 4 -5 5 -19 4
-30 -2 -10 -1 -23 3 -29 3 -5 6 -19 6 -30 0 -11 4 -26 8 -32 5 -7 5 -17 2 -23
-3 -5 -1 -10 5 -10 6 0 8 -5 5 -10 -4 -6 -1 -17 5 -25 7 -8 10 -15 6 -15 -3 0
0 -15 8 -34 8 -19 12 -37 8 -40 -3 -3 0 -6 6 -6 7 0 11 -3 10 -7 -1 -5 5 -21
12 -38 7 -16 13 -33 12 -37 -1 -5 3 -8 9 -8 5 0 8 -4 4 -9 -3 -5 -1 -12 5 -16
6 -4 8 -11 5 -16 -4 -5 -1 -9 4 -9 6 0 11 -8 11 -18 0 -11 9 -27 20 -37 11
-10 17 -21 15 -26 -3 -4 2 -12 11 -17 9 -5 15 -11 13 -13 -5 -8 46 -81 89
-125 12 -13 22 -26 22 -30 0 -15 190 -191 190 -176 0 4 5 -1 11 -11 5 -9 24
-24 42 -33 18 -9 34 -20 37 -24 10 -13 140 -82 140 -73 0 4 4 3 8 -2 10 -14
52 -34 81 -40 14 -2 28 -10 31 -16 4 -6 10 -10 14 -10 8 2 56 -9 76 -16 8 -3
22 -8 30 -10 8 -2 22 -5 30 -8 8 -2 15 -4 15 -5 0 -1 11 -3 25 -4 14 0 30 -4
35 -7 6 -3 25 -5 43 -3 17 1 32 -1 32 -5 0 -9 302 -8 316 1 6 4 21 6 32 3 12
-2 24 0 27 6 4 5 17 7 31 5 13 -3 24 -1 24 4 0 4 8 7 18 5 9 -1 22 1 27 6 6 4
26 11 45 14 18 3 38 9 44 13 6 3 17 7 24 8 8 2 21 6 30 10 9 4 19 8 22 9 3 2
15 6 28 10 12 4 22 12 22 17 0 5 5 6 10 3 6 -3 10 -2 10 4 0 6 7 8 15 5 8 -4
15 -1 15 7 0 7 3 9 6 6 4 -4 21 4 38 16 17 12 33 22 36 22 9 0 134 88 164 114
79 71 212 211 199 211 -4 0 3 7 15 16 12 8 22 22 22 30 0 8 4 14 9 14 5 0 14
13 21 30 7 16 16 30 20 30 4 0 10 8 13 17 3 10 12 29 21 43 17 30 30 62 28 73
-1 4 3 7 9 7 5 0 7 5 4 10 -3 6 -2 10 3 10 8 0 47 108 44 123 -1 4 2 7 6 7 4
0 9 12 10 26 1 14 5 31 9 37 7 11 10 25 17 77 2 14 4 25 6 25 1 0 3 14 4 30 1
17 4 35 7 40 7 13 2 298 -6 345 -3 19 -7 46 -8 60 -2 14 -7 31 -11 38 -4 7 -4
17 -1 22 3 6 2 10 -4 10 -6 0 -8 7 -5 15 4 8 2 15 -3 15 -5 0 -10 11 -11 26
-1 14 -6 33 -12 43 -5 10 -6 21 -3 25 3 3 1 6 -6 6 -7 0 -10 4 -6 9 3 5 1 12
-5 16 -5 3 -10 15 -10 26 0 10 -4 19 -10 19 -5 0 -9 3 -8 8 1 4 -3 17 -10 28
-6 12 -8 24 -5 28 3 3 0 6 -7 6 -7 0 -11 3 -7 6 3 4 -7 26 -23 50 -17 23 -30
47 -30 53 0 6 -4 11 -8 11 -5 0 -17 18 -28 40 -10 22 -25 40 -31 40 -7 0 -13
6 -13 13 0 7 -9 19 -20 27 -11 8 -20 18 -20 23 0 4 -29 38 -65 74 -36 36 -65
63 -65 60 0 -4 -13 7 -30 25 -16 17 -30 28 -30 23 0 -4 -9 3 -20 16 -10 13
-19 20 -20 16 0 -4 -10 2 -22 13 -22 20 -150 96 -156 92 -1 -1 -17 5 -35 15
-17 9 -35 16 -39 15 -5 -1 -8 3 -8 10 0 6 -3 8 -7 5 -3 -4 -11 -2 -18 3 -6 5
-20 11 -31 13 -10 2 -29 8 -40 15 -12 6 -24 9 -27 5 -4 -3 -13 0 -22 7 -8 7
-15 9 -15 5 0 -4 -6 -2 -13 4 -8 6 -17 8 -20 4 -4 -3 -12 -2 -19 4 -7 5 -25 9
-40 8 -16 0 -28 2 -28 5 0 3 -15 6 -32 7 -59 5 -329 9 -332 5z m289 -122 c0
-1 11 -3 25 -4 14 0 30 -4 35 -7 6 -4 20 -5 33 -4 12 1 22 -1 22 -5 0 -3 8 -6
18 -7 9 -1 24 -3 32 -6 8 -2 29 -7 45 -12 17 -4 36 -12 43 -18 6 -5 12 -6 12
-2 0 4 11 0 25 -9 14 -9 25 -14 25 -12 0 8 123 -54 143 -72 9 -8 17 -11 17 -7
0 5 6 1 13 -8 6 -9 18 -17 26 -19 8 -2 22 -10 31 -18 10 -8 31 -26 49 -38 50
-39 165 -156 201 -206 18 -25 37 -46 42 -46 5 0 7 -4 4 -9 -3 -5 1 -14 9 -21
8 -7 15 -19 15 -26 0 -8 4 -14 9 -14 5 0 15 -16 22 -35 7 -19 17 -35 21 -35 4
0 7 -3 6 -7 -1 -5 5 -22 15 -39 9 -17 13 -34 10 -38 -4 -3 -2 -6 4 -6 5 0 10
-6 11 -12 0 -7 8 -33 17 -58 9 -25 19 -53 21 -62 2 -10 6 -27 9 -38 3 -11 8
-30 11 -42 3 -13 6 -37 8 -54 1 -16 5 -34 7 -40 7 -12 2 -280 -5 -324 -8 -43
-14 -73 -16 -80 -1 -3 -2 -9 -1 -14 1 -4 -2 -13 -7 -20 -5 -6 -8 -19 -7 -28 2
-10 -1 -20 -6 -24 -5 -3 -7 -10 -4 -15 4 -5 1 -9 -6 -9 -7 0 -9 -3 -6 -7 4 -3
2 -12 -4 -20 -6 -7 -8 -13 -4 -13 4 0 0 -11 -9 -25 -9 -14 -14 -25 -11 -25 3
0 -7 -24 -22 -52 -15 -29 -26 -56 -25 -60 1 -5 -2 -8 -7 -8 -5 0 -14 -13 -21
-30 -7 -16 -16 -30 -21 -30 -5 0 -9 -7 -9 -15 0 -8 -10 -23 -22 -35 -12 -11
-18 -20 -14 -20 5 0 -2 -9 -15 -20 -13 -10 -21 -19 -18 -20 10 0 -161 -170
-171 -170 -5 0 -10 -3 -12 -7 -4 -10 -83 -69 -83 -63 -1 3 -20 -10 -43 -28
-23 -19 -42 -30 -42 -26 0 4 -9 -1 -20 -11 -11 -10 -20 -14 -20 -10 0 4 -9 0
-20 -10 -11 -10 -20 -15 -20 -10 0 4 -7 2 -15 -5 -8 -7 -15 -10 -15 -6 0 4
-10 0 -23 -9 -13 -8 -27 -12 -30 -8 -4 3 -7 0 -7 -7 0 -7 -3 -11 -6 -7 -4 3
-22 0 -41 -8 -19 -8 -39 -13 -43 -10 -5 3 -12 0 -15 -6 -4 -5 -13 -8 -21 -5
-8 3 -14 2 -14 -2 0 -4 -8 -8 -17 -9 -10 0 -36 -4 -58 -8 -48 -8 -326 -14
-340 -6 -5 2 -18 6 -30 8 -18 2 -46 7 -100 18 -11 2 -21 4 -22 5 -2 2 -7 4
-13 5 -5 1 -11 3 -12 4 -2 2 -14 4 -27 7 -14 2 -30 9 -38 15 -7 6 -13 8 -13 5
0 -4 -12 -1 -27 7 -43 22 -103 47 -107 44 -2 -1 -13 6 -23 16 -11 9 -23 14
-26 10 -4 -3 -7 -1 -7 5 0 10 -50 42 -65 42 -2 1 -21 16 -42 35 -21 19 -41 35
-45 35 -12 0 -157 150 -190 197 -17 23 -35 43 -40 43 -5 0 -7 4 -4 8 3 5 -4
19 -15 30 -10 12 -19 23 -18 24 1 2 -9 21 -22 43 -13 22 -24 42 -24 45 -1 3
-9 20 -18 37 -10 18 -15 33 -12 33 3 0 -2 11 -11 24 -8 14 -15 26 -14 28 2 4
-8 34 -21 66 -5 13 -7 28 -4 33 4 5 2 9 -2 9 -8 0 -10 8 -15 65 -1 14 -5 25
-8 25 -8 0 -10 24 -13 208 -2 83 0 152 4 152 3 0 5 14 4 30 -1 17 0 30 4 30 4
0 8 10 8 23 1 21 9 59 13 65 2 1 3 10 5 20 1 9 6 28 12 42 6 14 9 28 6 33 -2
4 1 7 8 7 7 0 9 3 6 7 -4 3 0 17 8 30 9 13 13 23 9 23 -4 0 -1 7 6 15 7 8 9
15 5 15 -5 0 0 9 10 20 10 11 14 20 10 20 -4 0 -1 8 8 18 10 10 14 22 10 25
-3 4 -1 7 5 7 7 0 12 5 12 10 0 12 90 144 102 148 4 2 8 7 8 12 0 10 170 181
170 171 1 -3 10 5 20 18 11 13 20 20 20 16 0 -4 12 4 26 18 15 15 30 25 34 22
4 -3 20 7 36 22 16 15 30 26 32 25 1 -1 25 9 54 24 66 33 209 85 219 78 4 -2
11 1 14 7 4 5 13 8 20 5 7 -2 16 -2 19 2 7 6 18 9 75 16 18 3 35 6 37 8 3 4
289 2 289 -2z"/>
<path d="M916 2346 c-51 -44 -50 -30 -53 -671 -2 -330 -4 -643 -6 -695 -3
-107 13 -154 62 -182 40 -23 101 -14 131 20 14 15 27 34 29 42 3 8 5 148 5
310 l1 295 403 0 c221 0 402 -2 403 -5 1 -3 2 -142 4 -310 3 -302 3 -304 27
-333 21 -26 30 -30 80 -30 50 -1 61 3 83 27 14 15 26 30 26 34 9 55 18 1434 9
1442 -3 3 -13 17 -23 33 -10 15 -26 27 -37 27 -10 0 -21 4 -24 9 -7 11 -21 9
-66 -11 -49 -21 -62 -41 -62 -90 1 -23 -2 -47 -6 -52 -4 -6 -7 -128 -7 -271
l0 -260 -400 0 -400 0 -2 305 c-2 168 -3 310 -4 317 -1 6 -17 24 -34 39 -41
36 -103 40 -139 10z"/>
</g>
</svg>
